<svg id="visual" viewBox="0 0 900 600" width="900" height="600" xmlns="http://www.w3.org/2000/svg" xmlns:xlink="http://www.w3.org/1999/xlink" version="1.1"><rect x="0" y="0" width="900" height="600" fill="#002233"></rect><path d="M0 462L21.5 471.2C43 480.3 86 498.7 128.8 487.2C171.7 475.7 214.3 434.3 257.2 433.7C300 433 343 473 385.8 487.3C428.7 501.7 471.3 490.3 514.2 469.2C557 448 600 417 642.8 400.8C685.7 384.7 728.3 383.3 771.2 400C814 416.7 857 451.3 878.5 468.7L900 486L900 601L878.5 601C857 601 814 601 771.2 601C728.3 601 685.7 601 642.8 601C600 601 557 601 514.2 601C471.3 601 428.7 601 385.8 601C343 601 300 601 257.2 601C214.3 601 171.7 601 128.8 601C86 601 43 601 21.5 601L0 601Z" fill="#0066FF" stroke-linecap="round" stroke-linejoin="miter"></path></svg>