<svg id="visual" viewBox="0 0 900 600" width="900" height="600" xmlns="http://www.w3.org/2000/svg" xmlns:xlink="http://www.w3.org/1999/xlink" version="1.1"><rect x="0" y="0" width="900" height="600" fill="#002233"></rect><path d="M0 456L21.5 458.7C43 461.3 86 466.7 128.8 454.3C171.7 442 214.3 412 257.2 415C300 418 343 454 385.8 469C428.7 484 471.3 478 514.2 466.5C557 455 600 438 642.8 443.7C685.7 449.3 728.3 477.7 771.2 476.5C814 475.3 857 444.7 878.5 429.3L900 414L900 601L878.5 601C857 601 814 601 771.2 601C728.3 601 685.7 601 642.8 601C600 601 557 601 514.2 601C471.3 601 428.7 601 385.8 601C343 601 300 601 257.2 601C214.3 601 171.7 601 128.8 601C86 601 43 601 21.5 601L0 601Z" fill="#0066FF" stroke-linecap="round" stroke-linejoin="miter"></path></svg>