<svg id="visual" viewBox="0 0 900 450" width="900" height="450" xmlns="http://www.w3.org/2000/svg" xmlns:xlink="http://www.w3.org/1999/xlink" version="1.1"><rect x="0" y="0" width="900" height="450" fill="#002233"></rect><path d="M0 351L16.7 353.2C33.3 355.3 66.7 359.7 100 363.3C133.3 367 166.7 370 200 368.7C233.3 367.3 266.7 361.7 300 351.5C333.3 341.3 366.7 326.7 400 316.5C433.3 306.3 466.7 300.7 500 308.2C533.3 315.7 566.7 336.3 600 350C633.3 363.7 666.7 370.3 700 373.2C733.3 376 766.7 375 800 363.8C833.3 352.7 866.7 331.3 883.3 320.7L900 310L900 451L883.3 451C866.7 451 833.3 451 800 451C766.7 451 733.3 451 700 451C666.7 451 633.3 451 600 451C566.7 451 533.3 451 500 451C466.7 451 433.3 451 400 451C366.7 451 333.3 451 300 451C266.7 451 233.3 451 200 451C166.7 451 133.3 451 100 451C66.7 451 33.3 451 16.7 451L0 451Z" fill="#0066FF" stroke-linecap="round" stroke-linejoin="miter"></path></svg>