<svg width="179" height="79" viewBox="0 0 179 79" fill="none" xmlns="http://www.w3.org/2000/svg">
<g clip-path="url(#clip0_20:6)">
<path d="M29.9115 35.4668C29.3398 33.3333 27.146 32.0667 25.0125 32.6384L23.0807 33.156C18.8125 34.2997 16.2802 38.6858 17.4238 42.954L18.9767 48.7496C20.1204 53.0177 24.5065 55.5501 28.7747 54.4064L30.7066 53.8888C32.84 53.3171 34.1066 51.1233 33.535 48.9898L29.9115 35.4668ZM55.8206 47.1595C60.0888 46.0158 62.6211 41.6297 61.4775 37.3615L59.9246 31.566C58.7809 27.2978 54.3948 24.7655 50.1266 25.9091L48.1948 26.4267C46.0613 26.9984 44.7947 29.1922 45.3663 31.3257L48.9898 44.8487C49.5615 46.9822 51.7553 48.2488 53.8888 47.6771L55.8206 47.1595ZM30.9096 8.28221C13.6654 12.9028 4.39743 30.7639 8.28221 47.474L8.79985 49.4059C9.08584 50.4732 10.182 51.1061 11.2493 50.8201L13.1812 50.3025C14.2485 50.0165 14.8814 48.9203 14.5954 47.853L14.0778 45.9211C10.3673 32.0734 18.6148 17.7883 32.4625 14.0778C46.3103 10.3673 60.5954 18.6148 64.3059 32.4625L64.2914 32.4664C64.3797 32.7572 69.6673 52.4717 69.6673 52.4717C70.4228 55.291 68.7496 58.189 65.9303 58.9445L53.6485 62.2354C52.7909 59.0345 49.5009 57.1351 46.3001 57.9927L42.4364 59.028C39.2355 59.8857 37.3361 63.1756 38.1937 66.3765C39.0514 69.5773 42.3414 71.4768 45.5422 70.6191L67.4832 64.74C73.5033 63.1269 77.076 56.9389 75.4629 50.9188L70.1015 30.9096C65.1107 14.4958 48.1538 3.66164 30.9096 8.28221Z" fill="white"/>
</g>
<path d="M113.74 47.228C113.884 47.54 113.956 47.852 113.956 48.164C113.956 48.716 113.728 49.184 113.272 49.568C112.84 49.952 112.336 50.144 111.76 50.144C111.376 50.144 111.016 50.048 110.68 49.856C110.344 49.64 110.08 49.316 109.888 48.884L107.728 44.06H95.056L92.896 48.884C92.704 49.316 92.44 49.64 92.104 49.856C91.768 50.048 91.396 50.144 90.988 50.144C90.436 50.144 89.932 49.952 89.476 49.568C89.02 49.184 88.792 48.716 88.792 48.164C88.792 47.852 88.864 47.54 89.008 47.228L98.944 25.88C99.16 25.4 99.484 25.04 99.916 24.8C100.372 24.536 100.852 24.404 101.356 24.404C101.86 24.404 102.328 24.536 102.76 24.8C103.216 25.04 103.552 25.4 103.768 25.88L113.74 47.228ZM96.64 40.46H106.144L101.392 29.768L96.64 40.46ZM119.759 50.216C119.063 50.216 118.499 50 118.067 49.568C117.659 49.136 117.455 48.572 117.455 47.876V26.744C117.455 26.048 117.659 25.496 118.067 25.088C118.499 24.656 119.063 24.44 119.759 24.44C120.479 24.44 121.043 24.656 121.451 25.088C121.883 25.496 122.099 26.048 122.099 26.744V47.876C122.099 48.572 121.883 49.136 121.451 49.568C121.043 50 120.479 50.216 119.759 50.216ZM150.116 24.44C150.788 24.44 151.328 24.656 151.736 25.088C152.144 25.496 152.348 26.048 152.348 26.744V48.056C152.348 48.728 152.156 49.256 151.772 49.64C151.388 50.024 150.884 50.216 150.26 50.216C149.636 50.216 149.144 50.024 148.784 49.64C148.424 49.256 148.244 48.728 148.244 48.056V33.224L142.124 44.816C141.836 45.344 141.524 45.74 141.188 46.004C140.852 46.244 140.456 46.364 140 46.364C139.544 46.364 139.148 46.244 138.812 46.004C138.476 45.764 138.164 45.368 137.876 44.816L131.72 33.404V48.056C131.72 48.704 131.528 49.232 131.144 49.64C130.784 50.024 130.292 50.216 129.668 50.216C129.044 50.216 128.552 50.024 128.192 49.64C127.832 49.256 127.652 48.728 127.652 48.056V26.744C127.652 26.048 127.844 25.496 128.228 25.088C128.636 24.656 129.176 24.44 129.848 24.44C130.784 24.44 131.516 24.956 132.044 25.988L140.036 41.216L147.992 25.988C148.52 24.956 149.228 24.44 150.116 24.44ZM166.633 50.324C164.785 50.324 163.033 50.084 161.377 49.604C159.745 49.1 158.413 48.428 157.381 47.588C156.829 47.18 156.553 46.604 156.553 45.86C156.553 45.356 156.697 44.924 156.985 44.564C157.297 44.18 157.657 43.988 158.065 43.988C158.497 43.988 158.989 44.156 159.541 44.492C160.573 45.236 161.653 45.776 162.781 46.112C163.909 46.448 165.157 46.616 166.525 46.616C168.277 46.616 169.621 46.316 170.557 45.716C171.493 45.092 171.961 44.192 171.961 43.016C171.961 42.104 171.517 41.408 170.629 40.928C169.765 40.424 168.313 39.944 166.273 39.488C164.161 39.032 162.445 38.504 161.125 37.904C159.805 37.304 158.809 36.536 158.137 35.6C157.465 34.664 157.129 33.476 157.129 32.036C157.129 30.548 157.549 29.216 158.389 28.04C159.229 26.864 160.393 25.952 161.881 25.304C163.393 24.632 165.085 24.296 166.957 24.296C170.389 24.296 173.185 25.208 175.345 27.032C175.657 27.296 175.873 27.56 175.993 27.824C176.137 28.064 176.209 28.376 176.209 28.76C176.209 29.264 176.053 29.708 175.741 30.092C175.453 30.452 175.105 30.632 174.697 30.632C174.457 30.632 174.229 30.596 174.013 30.524C173.821 30.452 173.557 30.32 173.221 30.128C172.237 29.408 171.277 28.88 170.341 28.544C169.429 28.184 168.301 28.004 166.957 28.004C165.325 28.004 164.029 28.34 163.069 29.012C162.133 29.66 161.665 30.572 161.665 31.748C161.665 32.732 162.085 33.488 162.925 34.016C163.765 34.544 165.193 35.036 167.209 35.492C169.345 35.972 171.073 36.512 172.393 37.112C173.737 37.688 174.757 38.432 175.453 39.344C176.173 40.256 176.533 41.396 176.533 42.764C176.533 44.252 176.113 45.572 175.273 46.724C174.457 47.852 173.293 48.74 171.781 49.388C170.293 50.012 168.577 50.324 166.633 50.324Z" fill="white"/>
<defs>
<clipPath id="clip0_20:6">
<rect width="64" height="64" fill="white" transform="translate(0 16.5644) rotate(-15)"/>
</clipPath>
</defs>
</svg>
