<svg width="102" height="145" viewBox="0 0 102 145" fill="none" xmlns="http://www.w3.org/2000/svg">
<path d="M33.4062 38.0625L35.5938 40.0312L49.5625 25.6562L64.125 39.4062L66.4062 37.6562L50.75 18.2812L48.9688 18.25L33.4062 38.0625ZM24.9062 44.0938L74.875 58.6562L74.5938 54.5312L24.6562 40.0938L24.9062 44.0938ZM33.4062 63.6562L48.9688 83.4688L50.75 83.4375L66.4062 64.0625L64.125 62.3125L49.5625 76.0625L35.5938 61.6875L33.4062 63.6562Z" fill="black"/>
<rect x="1.5" y="1.5" width="97" height="97" stroke="black" stroke-width="3"/>
<path d="M18.8587 126C18.3361 124.656 17.7761 123.125 17.1788 121.408C16.6001 119.672 16.0681 117.871 15.5828 116.004C15.0974 117.871 14.5654 119.672 13.9868 121.408C13.4081 123.125 12.8574 124.656 12.3348 126H10.0668C9.20808 124.077 8.36808 121.884 7.54675 119.42C6.72542 116.956 5.95075 114.296 5.22275 111.44H8.02275C8.20942 112.317 8.43342 113.269 8.69475 114.296C8.95608 115.323 9.22675 116.349 9.50675 117.376C9.80542 118.403 10.1134 119.392 10.4308 120.344C10.7481 121.296 11.0468 122.127 11.3268 122.836C11.6441 121.959 11.9521 121.035 12.2508 120.064C12.5681 119.075 12.8668 118.085 13.1468 117.096C13.4268 116.088 13.6881 115.108 13.9308 114.156C14.1921 113.185 14.4161 112.28 14.6028 111.44H16.7588C16.9268 112.28 17.1321 113.185 17.3748 114.156C17.6174 115.108 17.8788 116.088 18.1588 117.096C18.4388 118.085 18.7281 119.075 19.0268 120.064C19.3441 121.035 19.6614 121.959 19.9788 122.836C20.2588 122.127 20.5481 121.296 20.8468 120.344C21.1641 119.392 21.4721 118.403 21.7708 117.376C22.0694 116.349 22.3494 115.323 22.6108 114.296C22.8721 113.269 23.0961 112.317 23.2828 111.44H25.9708C25.2428 114.296 24.4681 116.956 23.6468 119.42C22.8254 121.884 21.9854 124.077 21.1268 126H18.8587ZM27.9124 118.748C27.9124 117.46 28.099 116.34 28.4724 115.388C28.8457 114.417 29.3404 113.615 29.9564 112.98C30.5724 112.345 31.2817 111.869 32.0844 111.552C32.887 111.235 33.7084 111.076 34.5484 111.076C36.5084 111.076 38.011 111.692 39.0564 112.924C40.1017 114.137 40.6244 115.995 40.6244 118.496C40.6244 118.608 40.6244 118.757 40.6244 118.944C40.6244 119.112 40.615 119.271 40.5964 119.42H30.6284C30.7404 120.932 31.179 122.08 31.9444 122.864C32.7097 123.648 33.9044 124.04 35.5284 124.04C36.443 124.04 37.2084 123.965 37.8244 123.816C38.459 123.648 38.935 123.489 39.2524 123.34L39.6164 125.524C39.299 125.692 38.739 125.869 37.9364 126.056C37.1524 126.243 36.2564 126.336 35.2484 126.336C33.979 126.336 32.8777 126.149 31.9444 125.776C31.0297 125.384 30.2737 124.852 29.6764 124.18C29.079 123.508 28.631 122.715 28.3324 121.8C28.0524 120.867 27.9124 119.849 27.9124 118.748ZM37.9084 117.32C37.927 116.144 37.6284 115.183 37.0124 114.436C36.415 113.671 35.5844 113.288 34.5204 113.288C33.923 113.288 33.391 113.409 32.9244 113.652C32.4764 113.876 32.0937 114.175 31.7764 114.548C31.459 114.921 31.207 115.351 31.0204 115.836C30.8524 116.321 30.7404 116.816 30.6844 117.32H37.9084ZM46.969 112.084C47.2863 111.879 47.7623 111.664 48.397 111.44C49.0503 111.216 49.797 111.104 50.637 111.104C51.6823 111.104 52.6063 111.291 53.409 111.664C54.2303 112.037 54.921 112.56 55.481 113.232C56.041 113.904 56.461 114.707 56.741 115.64C57.0397 116.573 57.189 117.6 57.189 118.72C57.189 119.896 57.0117 120.96 56.657 121.912C56.321 122.845 55.8357 123.639 55.201 124.292C54.5663 124.945 53.801 125.449 52.905 125.804C52.009 126.159 51.001 126.336 49.881 126.336C48.6677 126.336 47.5943 126.252 46.661 126.084C45.7277 125.916 44.9623 125.748 44.365 125.58V104.72L46.969 104.272V112.084ZM46.969 123.732C47.2303 123.807 47.5943 123.881 48.061 123.956C48.5463 124.012 49.1437 124.04 49.853 124.04C51.253 124.04 52.373 123.583 53.213 122.668C54.053 121.735 54.473 120.419 54.473 118.72C54.473 117.973 54.3983 117.273 54.249 116.62C54.0997 115.967 53.857 115.407 53.521 114.94C53.185 114.455 52.7463 114.081 52.205 113.82C51.6823 113.54 51.0477 113.4 50.301 113.4C49.5917 113.4 48.9383 113.521 48.341 113.764C47.7437 114.007 47.2863 114.259 46.969 114.52V123.732ZM64.2413 124.124C65.3053 124.124 66.0893 123.984 66.5933 123.704C67.1159 123.424 67.3773 122.976 67.3773 122.36C67.3773 121.725 67.1253 121.221 66.6213 120.848C66.1173 120.475 65.2866 120.055 64.1293 119.588C63.5693 119.364 63.0279 119.14 62.5053 118.916C62.0013 118.673 61.5626 118.393 61.1893 118.076C60.8159 117.759 60.5173 117.376 60.2933 116.928C60.0693 116.48 59.9573 115.929 59.9573 115.276C59.9573 113.988 60.4333 112.971 61.3853 112.224C62.3373 111.459 63.6346 111.076 65.2773 111.076C65.6879 111.076 66.0986 111.104 66.5093 111.16C66.9199 111.197 67.3026 111.253 67.6573 111.328C68.0119 111.384 68.3199 111.449 68.5813 111.524C68.8613 111.599 69.0759 111.664 69.2253 111.72L68.7493 113.96C68.4693 113.811 68.0306 113.661 67.4333 113.512C66.8359 113.344 66.1173 113.26 65.2773 113.26C64.5493 113.26 63.9146 113.409 63.3733 113.708C62.8319 113.988 62.5613 114.436 62.5613 115.052C62.5613 115.369 62.6173 115.649 62.7293 115.892C62.8599 116.135 63.0466 116.359 63.2893 116.564C63.5506 116.751 63.8679 116.928 64.2413 117.096C64.6146 117.264 65.0626 117.441 65.5853 117.628C66.2759 117.889 66.8919 118.151 67.4333 118.412C67.9746 118.655 68.4319 118.944 68.8053 119.28C69.1973 119.616 69.4959 120.027 69.7013 120.512C69.9066 120.979 70.0093 121.557 70.0093 122.248C70.0093 123.592 69.5053 124.609 68.4973 125.3C67.5079 125.991 66.0893 126.336 64.2413 126.336C62.9533 126.336 61.9453 126.224 61.2173 126C60.4893 125.795 59.9946 125.636 59.7333 125.524L60.2093 123.284C60.5079 123.396 60.9839 123.564 61.6373 123.788C62.2906 124.012 63.1586 124.124 64.2413 124.124ZM86.2014 118.72C86.2014 119.877 86.0334 120.923 85.6974 121.856C85.3614 122.789 84.8854 123.592 84.2694 124.264C83.672 124.936 82.9534 125.459 82.1134 125.832C81.2734 126.187 80.3587 126.364 79.3694 126.364C78.38 126.364 77.4654 126.187 76.6254 125.832C75.7854 125.459 75.0574 124.936 74.4414 124.264C73.844 123.592 73.3774 122.789 73.0414 121.856C72.7054 120.923 72.5374 119.877 72.5374 118.72C72.5374 117.581 72.7054 116.545 73.0414 115.612C73.3774 114.66 73.844 113.848 74.4414 113.176C75.0574 112.504 75.7854 111.991 76.6254 111.636C77.4654 111.263 78.38 111.076 79.3694 111.076C80.3587 111.076 81.2734 111.263 82.1134 111.636C82.9534 111.991 83.672 112.504 84.2694 113.176C84.8854 113.848 85.3614 114.66 85.6974 115.612C86.0334 116.545 86.2014 117.581 86.2014 118.72ZM83.4854 118.72C83.4854 117.077 83.112 115.78 82.3654 114.828C81.6374 113.857 80.6387 113.372 79.3694 113.372C78.1 113.372 77.092 113.857 76.3454 114.828C75.6174 115.78 75.2534 117.077 75.2534 118.72C75.2534 120.363 75.6174 121.669 76.3454 122.64C77.092 123.592 78.1 124.068 79.3694 124.068C80.6387 124.068 81.6374 123.592 82.3654 122.64C83.112 121.669 83.4854 120.363 83.4854 118.72ZM94.233 126.28C92.6277 126.243 91.489 125.897 90.817 125.244C90.145 124.591 89.809 123.573 89.809 122.192V104.72L92.413 104.272V121.772C92.413 122.201 92.4503 122.556 92.525 122.836C92.5997 123.116 92.721 123.34 92.889 123.508C93.057 123.676 93.281 123.807 93.561 123.9C93.841 123.975 94.1863 124.04 94.597 124.096L94.233 126.28Z" fill="black"/>
<path d="M8.65133 141.06C8.53933 141.06 8.45133 141.024 8.38733 140.952C8.32333 140.88 8.29133 140.788 8.29133 140.676V133.188H5.51933C5.41533 133.188 5.33133 133.16 5.26733 133.104C5.21133 133.048 5.18333 132.968 5.18333 132.864C5.18333 132.76 5.21133 132.68 5.26733 132.624C5.33133 132.568 5.41533 132.54 5.51933 132.54H11.7833C11.8793 132.54 11.9593 132.572 12.0233 132.636C12.0873 132.692 12.1193 132.768 12.1193 132.864C12.1193 132.96 12.0873 133.04 12.0233 133.104C11.9593 133.16 11.8793 133.188 11.7833 133.188H9.02333V140.676C9.02333 140.788 8.98733 140.88 8.91533 140.952C8.85133 141.024 8.76333 141.06 8.65133 141.06ZM13.6775 141C13.5655 141 13.4695 140.964 13.3895 140.892C13.3175 140.82 13.2815 140.732 13.2815 140.628V132.912C13.2815 132.808 13.3175 132.72 13.3895 132.648C13.4695 132.576 13.5655 132.54 13.6775 132.54H18.2375C18.3415 132.54 18.4215 132.568 18.4775 132.624C18.5415 132.68 18.5735 132.76 18.5735 132.864C18.5735 132.96 18.5415 133.036 18.4775 133.092C18.4215 133.148 18.3415 133.176 18.2375 133.176H14.0135V136.38H17.9975C18.1015 136.38 18.1815 136.408 18.2375 136.464C18.3015 136.52 18.3335 136.6 18.3335 136.704C18.3335 136.808 18.3015 136.888 18.2375 136.944C18.1815 137 18.1015 137.028 17.9975 137.028H14.0135V140.364H18.2375C18.3415 140.364 18.4215 140.392 18.4775 140.448C18.5415 140.496 18.5735 140.572 18.5735 140.676C18.5735 140.78 18.5415 140.86 18.4775 140.916C18.4215 140.972 18.3415 141 18.2375 141H13.6775ZM23.6881 141.096C22.9041 141.096 22.2201 140.924 21.6361 140.58C21.0601 140.228 20.6161 139.728 20.3041 139.08C20.0001 138.424 19.8481 137.652 19.8481 136.764C19.8481 135.876 20.0001 135.108 20.3041 134.46C20.6161 133.812 21.0601 133.316 21.6361 132.972C22.2201 132.62 22.9041 132.444 23.6881 132.444C24.2241 132.444 24.7321 132.536 25.2121 132.72C25.7001 132.896 26.1121 133.152 26.4481 133.488C26.5601 133.592 26.6161 133.708 26.6161 133.836C26.6161 133.924 26.5881 134 26.5321 134.064C26.4841 134.128 26.4281 134.16 26.3641 134.16C26.2841 134.16 26.1921 134.12 26.0881 134.04C25.6561 133.688 25.2641 133.444 24.9121 133.308C24.5601 133.172 24.1481 133.104 23.6761 133.104C22.7081 133.104 21.9561 133.424 21.4201 134.064C20.8921 134.704 20.6281 135.604 20.6281 136.764C20.6281 137.932 20.8921 138.836 21.4201 139.476C21.9561 140.116 22.7081 140.436 23.6761 140.436C24.1481 140.436 24.5601 140.368 24.9121 140.232C25.2641 140.096 25.6561 139.852 26.0881 139.5C26.2081 139.42 26.3001 139.38 26.3641 139.38C26.4281 139.38 26.4841 139.412 26.5321 139.476C26.5881 139.54 26.6161 139.616 26.6161 139.704C26.6161 139.832 26.5601 139.948 26.4481 140.052C26.1121 140.388 25.7001 140.648 25.2121 140.832C24.7321 141.008 24.2241 141.096 23.6881 141.096ZM34.7852 132.48C34.9052 132.48 34.9972 132.516 35.0612 132.588C35.1252 132.652 35.1572 132.744 35.1572 132.864V140.676C35.1572 140.796 35.1252 140.892 35.0612 140.964C34.9972 141.028 34.9052 141.06 34.7852 141.06C34.6732 141.06 34.5852 141.024 34.5212 140.952C34.4572 140.88 34.4252 140.788 34.4252 140.676V137.028H29.0252V140.676C29.0252 140.788 28.9932 140.88 28.9292 140.952C28.8652 141.024 28.7772 141.06 28.6652 141.06C28.5532 141.06 28.4612 141.024 28.3892 140.952C28.3252 140.88 28.2932 140.788 28.2932 140.676V132.864C28.2932 132.752 28.3252 132.66 28.3892 132.588C28.4612 132.516 28.5532 132.48 28.6652 132.48C28.7772 132.48 28.8652 132.516 28.9292 132.588C28.9932 132.66 29.0252 132.752 29.0252 132.864V136.38H34.4252V132.864C34.4252 132.752 34.4572 132.66 34.5212 132.588C34.5852 132.516 34.6732 132.48 34.7852 132.48ZM43.628 132.48C43.74 132.48 43.824 132.516 43.88 132.588C43.944 132.652 43.976 132.744 43.976 132.864V140.676C43.976 140.788 43.944 140.88 43.88 140.952C43.816 141.024 43.728 141.06 43.616 141.06C43.496 141.06 43.388 141 43.292 140.88L38.036 133.788V140.676C38.036 140.788 38.004 140.88 37.94 140.952C37.876 141.024 37.792 141.06 37.688 141.06C37.568 141.06 37.48 141.028 37.424 140.964C37.368 140.892 37.34 140.796 37.34 140.676V132.864C37.34 132.752 37.372 132.66 37.436 132.588C37.508 132.516 37.604 132.48 37.724 132.48C37.852 132.48 37.956 132.54 38.036 132.66L43.28 139.74V132.864C43.28 132.752 43.312 132.66 43.376 132.588C43.44 132.516 43.524 132.48 43.628 132.48ZM49.6083 141.096C48.8403 141.096 48.1723 140.924 47.6043 140.58C47.0363 140.228 46.6003 139.728 46.2963 139.08C45.9923 138.424 45.8403 137.656 45.8403 136.776C45.8403 135.888 45.9923 135.12 46.2963 134.472C46.6003 133.816 47.0323 133.316 47.5923 132.972C48.1603 132.62 48.8323 132.444 49.6083 132.444C50.3843 132.444 51.0563 132.62 51.6243 132.972C52.1923 133.316 52.6283 133.812 52.9323 134.46C53.2363 135.108 53.3883 135.876 53.3883 136.764C53.3883 137.652 53.2363 138.424 52.9323 139.08C52.6283 139.728 52.1923 140.228 51.6243 140.58C51.0563 140.924 50.3843 141.096 49.6083 141.096ZM49.6083 140.436C50.5603 140.436 51.3003 140.116 51.8283 139.476C52.3563 138.836 52.6203 137.932 52.6203 136.764C52.6203 135.596 52.3563 134.696 51.8283 134.064C51.3083 133.424 50.5683 133.104 49.6083 133.104C48.6563 133.104 47.9163 133.424 47.3883 134.064C46.8683 134.704 46.6083 135.604 46.6083 136.764C46.6083 137.924 46.8683 138.828 47.3883 139.476C47.9163 140.116 48.6563 140.436 49.6083 140.436ZM55.6303 141C55.5263 141 55.4343 140.968 55.3543 140.904C55.2823 140.84 55.2463 140.76 55.2463 140.664V132.864C55.2463 132.752 55.2783 132.66 55.3423 132.588C55.4143 132.516 55.5063 132.48 55.6183 132.48C55.7383 132.48 55.8303 132.516 55.8943 132.588C55.9583 132.652 55.9903 132.744 55.9903 132.864V140.352H60.0943C60.1983 140.352 60.2783 140.38 60.3343 140.436C60.3983 140.492 60.4303 140.572 60.4303 140.676C60.4303 140.78 60.3983 140.86 60.3343 140.916C60.2783 140.972 60.1983 141 60.0943 141H55.6303ZM64.6669 141.096C63.8989 141.096 63.2309 140.924 62.6629 140.58C62.0949 140.228 61.6589 139.728 61.3549 139.08C61.0509 138.424 60.8989 137.656 60.8989 136.776C60.8989 135.888 61.0509 135.12 61.3549 134.472C61.6589 133.816 62.0909 133.316 62.6509 132.972C63.2189 132.62 63.8909 132.444 64.6669 132.444C65.4429 132.444 66.1149 132.62 66.6829 132.972C67.2509 133.316 67.6869 133.812 67.9909 134.46C68.2949 135.108 68.4469 135.876 68.4469 136.764C68.4469 137.652 68.2949 138.424 67.9909 139.08C67.6869 139.728 67.2509 140.228 66.6829 140.58C66.1149 140.924 65.4429 141.096 64.6669 141.096ZM64.6669 140.436C65.6189 140.436 66.3589 140.116 66.8869 139.476C67.4149 138.836 67.6789 137.932 67.6789 136.764C67.6789 135.596 67.4149 134.696 66.8869 134.064C66.3669 133.424 65.6269 133.104 64.6669 133.104C63.7149 133.104 62.9749 133.424 62.4469 134.064C61.9269 134.704 61.6669 135.604 61.6669 136.764C61.6669 137.924 61.9269 138.828 62.4469 139.476C62.9749 140.116 63.7149 140.436 64.6669 140.436ZM76.5209 136.668C76.6169 136.668 76.6929 136.7 76.7489 136.764C76.8129 136.82 76.8449 136.896 76.8449 136.992V140.172C76.8449 140.38 76.7529 140.524 76.5689 140.604C76.2409 140.756 75.8409 140.876 75.3689 140.964C74.9049 141.052 74.4329 141.096 73.9529 141.096C73.1289 141.096 72.4169 140.928 71.8169 140.592C71.2249 140.248 70.7689 139.752 70.4489 139.104C70.1369 138.448 69.9809 137.668 69.9809 136.764C69.9809 135.876 70.1369 135.108 70.4489 134.46C70.7609 133.812 71.2089 133.316 71.7929 132.972C72.3769 132.62 73.0689 132.444 73.8689 132.444C74.4289 132.444 74.9529 132.536 75.4409 132.72C75.9289 132.896 76.3289 133.152 76.6409 133.488C76.7449 133.592 76.7969 133.708 76.7969 133.836C76.7969 133.924 76.7729 134 76.7249 134.064C76.6769 134.128 76.6169 134.16 76.5449 134.16C76.4809 134.16 76.3929 134.12 76.2809 134.04C75.8569 133.688 75.4649 133.444 75.1049 133.308C74.7449 133.172 74.3329 133.104 73.8689 133.104C72.8769 133.104 72.1089 133.424 71.5649 134.064C71.0289 134.696 70.7609 135.596 70.7609 136.764C70.7609 137.956 71.0329 138.868 71.5769 139.5C72.1209 140.132 72.9129 140.448 73.9529 140.448C74.3529 140.448 74.7449 140.416 75.1289 140.352C75.5209 140.28 75.8689 140.18 76.1729 140.052V137.292H74.2289C74.1169 137.292 74.0289 137.264 73.9649 137.208C73.9089 137.152 73.8809 137.076 73.8809 136.98C73.8809 136.884 73.9089 136.808 73.9649 136.752C74.0289 136.696 74.1169 136.668 74.2289 136.668H76.5209ZM79.3019 141.06C79.1899 141.06 79.0979 141.024 79.0259 140.952C78.9619 140.88 78.9299 140.788 78.9299 140.676V132.864C78.9299 132.752 78.9619 132.66 79.0259 132.588C79.0979 132.516 79.1899 132.48 79.3019 132.48C79.4139 132.48 79.5019 132.516 79.5659 132.588C79.6379 132.66 79.6739 132.752 79.6739 132.864V140.676C79.6739 140.788 79.6379 140.88 79.5659 140.952C79.5019 141.024 79.4139 141.06 79.3019 141.06ZM82.2556 141C82.1436 141 82.0476 140.964 81.9676 140.892C81.8956 140.82 81.8596 140.732 81.8596 140.628V132.912C81.8596 132.808 81.8956 132.72 81.9676 132.648C82.0476 132.576 82.1436 132.54 82.2556 132.54H86.8156C86.9196 132.54 86.9996 132.568 87.0556 132.624C87.1196 132.68 87.1516 132.76 87.1516 132.864C87.1516 132.96 87.1196 133.036 87.0556 133.092C86.9996 133.148 86.9196 133.176 86.8156 133.176H82.5916V136.38H86.5756C86.6796 136.38 86.7596 136.408 86.8156 136.464C86.8796 136.52 86.9116 136.6 86.9116 136.704C86.9116 136.808 86.8796 136.888 86.8156 136.944C86.7596 137 86.6796 137.028 86.5756 137.028H82.5916V140.364H86.8156C86.9196 140.364 86.9996 140.392 87.0556 140.448C87.1196 140.496 87.1516 140.572 87.1516 140.676C87.1516 140.78 87.1196 140.86 87.0556 140.916C86.9996 140.972 86.9196 141 86.8156 141H82.2556ZM91.2956 141.096C90.7036 141.096 90.1316 141.004 89.5796 140.82C89.0356 140.628 88.6076 140.372 88.2956 140.052C88.1916 139.964 88.1396 139.848 88.1396 139.704C88.1396 139.616 88.1636 139.54 88.2116 139.476C88.2676 139.412 88.3276 139.38 88.3916 139.38C88.4716 139.38 88.5636 139.42 88.6676 139.5C89.4196 140.124 90.2956 140.436 91.2956 140.436C92.0236 140.436 92.5836 140.292 92.9756 140.004C93.3756 139.708 93.5756 139.292 93.5756 138.756C93.5756 138.444 93.4796 138.192 93.2876 138C93.0956 137.808 92.8516 137.66 92.5556 137.556C92.2596 137.444 91.8636 137.332 91.3676 137.22C90.7116 137.076 90.1796 136.928 89.7716 136.776C89.3716 136.624 89.0316 136.396 88.7516 136.092C88.4716 135.78 88.3316 135.364 88.3316 134.844C88.3316 134.372 88.4556 133.956 88.7036 133.596C88.9596 133.228 89.3156 132.944 89.7716 132.744C90.2276 132.544 90.7516 132.444 91.3436 132.444C91.8956 132.444 92.4156 132.536 92.9036 132.72C93.3916 132.896 93.7956 133.152 94.1156 133.488C94.2196 133.592 94.2716 133.708 94.2716 133.836C94.2716 133.924 94.2436 134 94.1876 134.064C94.1396 134.128 94.0836 134.16 94.0196 134.16C93.9396 134.16 93.8476 134.12 93.7436 134.04C93.3116 133.688 92.9196 133.444 92.5676 133.308C92.2236 133.172 91.8156 133.104 91.3436 133.104C90.6316 133.104 90.0756 133.256 89.6756 133.56C89.2756 133.864 89.0756 134.288 89.0756 134.832C89.0756 135.16 89.1636 135.428 89.3396 135.636C89.5156 135.836 89.7436 135.996 90.0236 136.116C90.3116 136.236 90.6796 136.352 91.1276 136.464L91.4396 136.536C92.0876 136.696 92.5996 136.844 92.9756 136.98C93.3516 137.116 93.6676 137.328 93.9236 137.616C94.1876 137.896 94.3196 138.276 94.3196 138.756C94.3196 139.212 94.1916 139.62 93.9356 139.98C93.6876 140.332 93.3316 140.608 92.8676 140.808C92.4116 141 91.8876 141.096 91.2956 141.096Z" fill="black"/>
</svg>
