<svg width="419" height="844" viewBox="0 0 419 844" fill="none" xmlns="http://www.w3.org/2000/svg">
<path d="M417.183 177.331C418.19 177.331 419.001 178.14 419.001 179.147V263.545C419.001 264.552 418.19 265.363 417.183 265.363H403.183C402.176 265.363 401.365 264.552 401.365 263.545V179.147C401.365 178.14 402.176 177.331 403.183 177.331H417.183Z" fill="black"/>
<path d="M15.8182 103.389H1.81738C0.813658 103.389 0 104.203 0 105.207V131.458C0 132.462 0.813658 133.276 1.81738 133.276H15.8182C16.8219 133.276 17.6356 132.462 17.6356 131.458V105.207C17.6356 104.203 16.8219 103.389 15.8182 103.389Z" fill="black"/>
<path d="M1.81791 159.124C0.811038 159.124 0 159.933 0 160.94V212.972C0 213.979 0.811038 214.79 1.81791 214.79H15.8174C16.8243 214.79 17.6354 213.979 17.6354 212.972V160.94C17.6354 159.933 16.8243 159.124 15.8174 159.124H1.81791Z" fill="black"/>
<path d="M1.81791 229.128C0.811038 229.128 0 229.937 0 230.944V282.976C0 283.983 0.811038 284.794 1.81791 284.794H15.8174C16.8243 284.794 17.6354 283.983 17.6354 282.976V230.944C17.6354 229.937 16.8243 229.128 15.8174 229.128H1.81791Z" fill="black"/>
<path d="M58.3619 0C27.187 0 2.09082 25.0962 2.09082 56.2711V131.714V711.615V787.058C2.09082 818.233 27.187 843.331 58.3619 843.331H93.5451H172.401H189.993H229.008H246.599H325.455H360.639C391.813 843.331 416.91 818.233 416.91 787.058V711.615V131.714V56.2711C416.91 25.0962 391.813 0 360.639 0H325.455H93.5451H58.3619Z" fill="black"/>
<path d="M250.43 36.4091C253.423 36.4091 255.849 33.9831 255.849 30.9905C255.849 27.9979 253.423 25.572 250.43 25.572C247.438 25.572 245.012 27.9979 245.012 30.9905C245.012 33.9831 247.438 36.4091 250.43 36.4091Z" fill="black"/>
<path d="M250.43 35.3321C252.828 35.3321 254.772 33.3883 254.772 30.9905C254.772 28.5927 252.828 26.6489 250.43 26.6489C248.033 26.6489 246.089 28.5927 246.089 30.9905C246.089 33.3883 248.033 35.3321 250.43 35.3321Z" fill="black"/>
<path d="M134.284 34.6078C136.282 34.6078 137.902 32.9883 137.902 30.9905C137.902 28.9927 136.282 27.3732 134.284 27.3732C132.287 27.3732 130.667 28.9927 130.667 30.9905C130.667 32.9883 132.287 34.6078 134.284 34.6078Z" fill="black"/>
<path d="M279.029 37.4636C282.604 37.4636 285.502 34.5655 285.502 30.9905C285.502 27.4155 282.604 24.5174 279.029 24.5174C275.454 24.5174 272.556 27.4155 272.556 30.9905C272.556 34.5655 275.454 37.4636 279.029 37.4636Z" fill="black"/>
<path d="M164.701 36.3213C167.646 36.3213 170.032 33.9346 170.032 30.9905C170.032 28.0464 167.646 25.6597 164.701 25.6597C161.757 25.6597 159.371 28.0464 159.371 30.9905C159.371 33.9346 161.757 36.3213 164.701 36.3213Z" fill="black"/>
<path d="M189.311 28.3581C187.645 28.3581 186.296 29.6989 186.296 31.3646C186.296 33.0302 187.645 34.371 189.311 34.371H229.292C230.957 34.371 232.298 33.0302 232.298 31.3646C232.298 29.6989 230.957 28.3581 229.292 28.3581H189.311ZM189.311 28.5706H229.292C230.843 28.5706 232.086 29.8133 232.086 31.3646C232.086 32.9158 230.843 34.1585 229.292 34.1585H189.311C187.759 34.1585 186.509 32.9158 186.509 31.3646C186.509 29.8133 187.759 28.5706 189.311 28.5706Z" fill="black"/>
<path d="M75.2778 838.484V842.12H80.5274V838.484H75.2778Z" fill="#424F46"/>
<path d="M59.47 22.8683C40.5264 22.8683 25.2759 38.1188 25.2759 57.0624L25.2759 786.269C25.2759 805.213 40.5264 820.463 59.47 820.463H359.531C378.475 820.463 393.725 805.213 393.725 786.269V57.0624C393.725 38.1188 378.475 22.8683 359.531 22.8683H308.491C305.336 22.8685 302.779 25.4256 302.779 28.5801V31.2101C302.779 41.5023 294.495 49.7887 284.202 49.7887H134.799C124.506 49.7887 116.222 41.5023 116.222 31.2101V28.5801C116.222 25.4257 113.665 22.8685 110.51 22.8683H59.47Z" fill="white"/>
</svg>
