<svg width="250" height="200" viewBox="0 0 250 200" fill="none" xmlns="http://www.w3.org/2000/svg">
<g clip-path="url(#clip0_19:2)">
<rect width="250" height="200" fill="white"/>
<rect width="250" height="200" fill="#4E73DF"/>
<g clip-path="url(#clip1_19:2)">
<path d="M65.9115 96.4668C65.3398 94.3333 63.146 93.0667 61.0125 93.6384L59.0807 94.156C54.8125 95.2997 52.2802 99.6858 53.4238 103.954L54.9767 109.75C56.1204 114.018 60.5065 116.55 64.7747 115.406L66.7066 114.889C68.84 114.317 70.1066 112.123 69.535 109.99L65.9115 96.4668ZM91.8206 108.159C96.0888 107.016 98.6211 102.63 97.4775 98.3615L95.9246 92.566C94.7809 88.2978 90.3948 85.7655 86.1266 86.9091L84.1948 87.4268C82.0613 87.9984 80.7947 90.1922 81.3663 92.3257L84.9898 105.849C85.5615 107.982 87.7553 109.249 89.8888 108.677L91.8206 108.159ZM66.9096 69.2822C49.6654 73.9028 40.3974 91.7639 44.2822 108.474L44.7998 110.406C45.0858 111.473 46.182 112.106 47.2493 111.82L49.1812 111.302C50.2485 111.016 50.8814 109.92 50.5954 108.853L50.0778 106.921C46.3673 93.0734 54.6148 78.7883 68.4625 75.0778C82.3103 71.3673 96.5954 79.6148 100.306 93.4625L100.291 93.4664C100.38 93.7572 105.667 113.472 105.667 113.472C106.423 116.291 104.75 119.189 101.93 119.944L89.6485 123.235C88.7909 120.035 85.5009 118.135 82.3001 118.993L78.4364 120.028C75.2355 120.886 73.3361 124.176 74.1937 127.376C75.0514 130.577 78.3414 132.477 81.5422 131.619L103.483 125.74C109.503 124.127 113.076 117.939 111.463 111.919L106.101 91.9096C101.111 75.4958 84.1538 64.6616 66.9096 69.2822Z" fill="white"/>
</g>
<path d="M149.74 108.228C149.884 108.54 149.956 108.852 149.956 109.164C149.956 109.716 149.728 110.184 149.272 110.568C148.84 110.952 148.336 111.144 147.76 111.144C147.376 111.144 147.016 111.048 146.68 110.856C146.344 110.64 146.08 110.316 145.888 109.884L143.728 105.06H131.056L128.896 109.884C128.704 110.316 128.44 110.64 128.104 110.856C127.768 111.048 127.396 111.144 126.988 111.144C126.436 111.144 125.932 110.952 125.476 110.568C125.02 110.184 124.792 109.716 124.792 109.164C124.792 108.852 124.864 108.54 125.008 108.228L134.944 86.88C135.16 86.4 135.484 86.04 135.916 85.8C136.372 85.536 136.852 85.404 137.356 85.404C137.86 85.404 138.328 85.536 138.76 85.8C139.216 86.04 139.552 86.4 139.768 86.88L149.74 108.228ZM132.64 101.46H142.144L137.392 90.768L132.64 101.46ZM155.759 111.216C155.063 111.216 154.499 111 154.067 110.568C153.659 110.136 153.455 109.572 153.455 108.876V87.744C153.455 87.048 153.659 86.496 154.067 86.088C154.499 85.656 155.063 85.44 155.759 85.44C156.479 85.44 157.043 85.656 157.451 86.088C157.883 86.496 158.099 87.048 158.099 87.744V108.876C158.099 109.572 157.883 110.136 157.451 110.568C157.043 111 156.479 111.216 155.759 111.216ZM186.116 85.44C186.788 85.44 187.328 85.656 187.736 86.088C188.144 86.496 188.348 87.048 188.348 87.744V109.056C188.348 109.728 188.156 110.256 187.772 110.64C187.388 111.024 186.884 111.216 186.26 111.216C185.636 111.216 185.144 111.024 184.784 110.64C184.424 110.256 184.244 109.728 184.244 109.056V94.224L178.124 105.816C177.836 106.344 177.524 106.74 177.188 107.004C176.852 107.244 176.456 107.364 176 107.364C175.544 107.364 175.148 107.244 174.812 107.004C174.476 106.764 174.164 106.368 173.876 105.816L167.72 94.404V109.056C167.72 109.704 167.528 110.232 167.144 110.64C166.784 111.024 166.292 111.216 165.668 111.216C165.044 111.216 164.552 111.024 164.192 110.64C163.832 110.256 163.652 109.728 163.652 109.056V87.744C163.652 87.048 163.844 86.496 164.228 86.088C164.636 85.656 165.176 85.44 165.848 85.44C166.784 85.44 167.516 85.956 168.044 86.988L176.036 102.216L183.992 86.988C184.52 85.956 185.228 85.44 186.116 85.44ZM202.633 111.324C200.785 111.324 199.033 111.084 197.377 110.604C195.745 110.1 194.413 109.428 193.381 108.588C192.829 108.18 192.553 107.604 192.553 106.86C192.553 106.356 192.697 105.924 192.985 105.564C193.297 105.18 193.657 104.988 194.065 104.988C194.497 104.988 194.989 105.156 195.541 105.492C196.573 106.236 197.653 106.776 198.781 107.112C199.909 107.448 201.157 107.616 202.525 107.616C204.277 107.616 205.621 107.316 206.557 106.716C207.493 106.092 207.961 105.192 207.961 104.016C207.961 103.104 207.517 102.408 206.629 101.928C205.765 101.424 204.313 100.944 202.273 100.488C200.161 100.032 198.445 99.504 197.125 98.904C195.805 98.304 194.809 97.536 194.137 96.6C193.465 95.664 193.129 94.476 193.129 93.036C193.129 91.548 193.549 90.216 194.389 89.04C195.229 87.864 196.393 86.952 197.881 86.304C199.393 85.632 201.085 85.296 202.957 85.296C206.389 85.296 209.185 86.208 211.345 88.032C211.657 88.296 211.873 88.56 211.993 88.824C212.137 89.064 212.209 89.376 212.209 89.76C212.209 90.264 212.053 90.708 211.741 91.092C211.453 91.452 211.105 91.632 210.697 91.632C210.457 91.632 210.229 91.596 210.013 91.524C209.821 91.452 209.557 91.32 209.221 91.128C208.237 90.408 207.277 89.88 206.341 89.544C205.429 89.184 204.301 89.004 202.957 89.004C201.325 89.004 200.029 89.34 199.069 90.012C198.133 90.66 197.665 91.572 197.665 92.748C197.665 93.732 198.085 94.488 198.925 95.016C199.765 95.544 201.193 96.036 203.209 96.492C205.345 96.972 207.073 97.512 208.393 98.112C209.737 98.688 210.757 99.432 211.453 100.344C212.173 101.256 212.533 102.396 212.533 103.764C212.533 105.252 212.113 106.572 211.273 107.724C210.457 108.852 209.293 109.74 207.781 110.388C206.293 111.012 204.577 111.324 202.633 111.324Z" fill="white"/>
</g>
<defs>
<clipPath id="clip0_19:2">
<rect width="250" height="200" fill="white"/>
</clipPath>
<clipPath id="clip1_19:2">
<rect width="64" height="64" fill="white" transform="translate(36 77.5644) rotate(-15)"/>
</clipPath>
</defs>
</svg>
