<svg width="250" height="200" viewBox="0 0 250 200" fill="none" xmlns="http://www.w3.org/2000/svg">
<rect width="250" height="200" fill="white"/>
<rect width="250" height="200" fill="#18A762"/>
<path d="M73.9844 111H70.1875V94.0938H73.9844V111ZM69.9531 89.7031C69.9531 89.1198 70.1354 88.6354 70.5 88.25C70.875 87.8646 71.4062 87.6719 72.0938 87.6719C72.7812 87.6719 73.3125 87.8646 73.6875 88.25C74.0625 88.6354 74.25 89.1198 74.25 89.7031C74.25 90.276 74.0625 90.7552 73.6875 91.1406C73.3125 91.5156 72.7812 91.7031 72.0938 91.7031C71.4062 91.7031 70.875 91.5156 70.5 91.1406C70.1354 90.7552 69.9531 90.276 69.9531 89.7031ZM90.3906 105.141C90.3906 104.141 90.0365 103.37 89.3281 102.828C88.6302 102.286 87.3646 101.74 85.5312 101.188C83.6979 100.635 82.2396 100.021 81.1562 99.3438C79.0833 98.0417 78.0469 96.3438 78.0469 94.25C78.0469 92.4167 78.7917 90.9062 80.2812 89.7188C81.7812 88.5312 83.724 87.9375 86.1094 87.9375C87.6927 87.9375 89.1042 88.2292 90.3438 88.8125C91.5833 89.3958 92.5573 90.2292 93.2656 91.3125C93.974 92.3854 94.3281 93.5781 94.3281 94.8906H90.3906C90.3906 93.7031 90.0156 92.776 89.2656 92.1094C88.526 91.4323 87.4635 91.0938 86.0781 91.0938C84.7865 91.0938 83.7812 91.3698 83.0625 91.9219C82.3542 92.474 82 93.2448 82 94.2344C82 95.0677 82.3854 95.7656 83.1562 96.3281C83.9271 96.8802 85.1979 97.4219 86.9688 97.9531C88.7396 98.474 90.1615 99.0729 91.2344 99.75C92.3073 100.417 93.0938 101.188 93.5938 102.062C94.0938 102.927 94.3438 103.943 94.3438 105.109C94.3438 107.005 93.6146 108.516 92.1562 109.641C90.7083 110.755 88.7396 111.312 86.25 111.312C84.6042 111.312 83.0885 111.01 81.7031 110.406C80.3281 109.792 79.2552 108.948 78.4844 107.875C77.724 106.802 77.3438 105.552 77.3438 104.125H81.2969C81.2969 105.417 81.724 106.417 82.5781 107.125C83.4323 107.833 84.6562 108.188 86.25 108.188C87.625 108.188 88.6562 107.911 89.3438 107.359C90.0417 106.797 90.3906 106.057 90.3906 105.141ZM104.891 111.312C102.484 111.312 100.531 110.557 99.0312 109.047C97.5417 107.526 96.7969 105.505 96.7969 102.984V102.516C96.7969 100.828 97.1198 99.3229 97.7656 98C98.4219 96.6667 99.3385 95.6302 100.516 94.8906C101.693 94.151 103.005 93.7812 104.453 93.7812C106.755 93.7812 108.531 94.5156 109.781 95.9844C111.042 97.4531 111.672 99.5312 111.672 102.219V103.75H100.625C100.74 105.146 101.203 106.25 102.016 107.062C102.839 107.875 103.87 108.281 105.109 108.281C106.849 108.281 108.266 107.578 109.359 106.172L111.406 108.125C110.729 109.135 109.823 109.922 108.688 110.484C107.562 111.036 106.297 111.312 104.891 111.312ZM104.438 96.8281C103.396 96.8281 102.552 97.1927 101.906 97.9219C101.271 98.651 100.865 99.6667 100.688 100.969H107.922V100.688C107.839 99.4167 107.5 98.4583 106.906 97.8125C106.312 97.1562 105.49 96.8281 104.438 96.8281ZM123.484 97.5625C122.984 97.4792 122.469 97.4375 121.938 97.4375C120.198 97.4375 119.026 98.1042 118.422 99.4375V111H114.625V94.0938H118.25L118.344 95.9844C119.26 94.5156 120.531 93.7812 122.156 93.7812C122.698 93.7812 123.146 93.8542 123.5 94L123.484 97.5625ZM132.125 106.188L135.703 94.0938H139.625L133.766 111H130.469L124.562 94.0938H128.5L132.125 106.188ZM146.047 111H142.25V94.0938H146.047V111ZM142.016 89.7031C142.016 89.1198 142.198 88.6354 142.562 88.25C142.938 87.8646 143.469 87.6719 144.156 87.6719C144.844 87.6719 145.375 87.8646 145.75 88.25C146.125 88.6354 146.312 89.1198 146.312 89.7031C146.312 90.276 146.125 90.7552 145.75 91.1406C145.375 91.5156 144.844 91.7031 144.156 91.7031C143.469 91.7031 142.938 91.5156 142.562 91.1406C142.198 90.7552 142.016 90.276 142.016 89.7031ZM157.141 108.281C158.089 108.281 158.875 108.005 159.5 107.453C160.125 106.901 160.458 106.219 160.5 105.406H164.078C164.036 106.458 163.708 107.443 163.094 108.359C162.479 109.266 161.646 109.984 160.594 110.516C159.542 111.047 158.406 111.312 157.188 111.312C154.823 111.312 152.948 110.547 151.562 109.016C150.177 107.484 149.484 105.37 149.484 102.672V102.281C149.484 99.7083 150.172 97.651 151.547 96.1094C152.922 94.5573 154.797 93.7812 157.172 93.7812C159.182 93.7812 160.818 94.3698 162.078 95.5469C163.349 96.7135 164.016 98.25 164.078 100.156H160.5C160.458 99.1875 160.125 98.3906 159.5 97.7656C158.885 97.1406 158.099 96.8281 157.141 96.8281C155.911 96.8281 154.964 97.276 154.297 98.1719C153.63 99.0573 153.292 100.406 153.281 102.219V102.828C153.281 104.661 153.609 106.031 154.266 106.938C154.932 107.833 155.891 108.281 157.141 108.281ZM174.391 111.312C171.984 111.312 170.031 110.557 168.531 109.047C167.042 107.526 166.297 105.505 166.297 102.984V102.516C166.297 100.828 166.62 99.3229 167.266 98C167.922 96.6667 168.839 95.6302 170.016 94.8906C171.193 94.151 172.505 93.7812 173.953 93.7812C176.255 93.7812 178.031 94.5156 179.281 95.9844C180.542 97.4531 181.172 99.5312 181.172 102.219V103.75H170.125C170.24 105.146 170.703 106.25 171.516 107.062C172.339 107.875 173.37 108.281 174.609 108.281C176.349 108.281 177.766 107.578 178.859 106.172L180.906 108.125C180.229 109.135 179.323 109.922 178.188 110.484C177.062 111.036 175.797 111.312 174.391 111.312ZM173.938 96.8281C172.896 96.8281 172.052 97.1927 171.406 97.9219C170.771 98.651 170.365 99.6667 170.188 100.969H177.422V100.688C177.339 99.4167 177 98.4583 176.406 97.8125C175.812 97.1562 174.99 96.8281 173.938 96.8281Z" fill="white"/>
</svg>
