<svg width="250" height="200" viewBox="0 0 250 200" fill="none" xmlns="http://www.w3.org/2000/svg">
<rect width="250" height="200" fill="white"/>
<rect width="250" height="200" fill="#00C8C8"/>
<path d="M50.4375 88.25L57 105.688L63.5469 88.25H68.6562V111H64.7188V103.5L65.1094 93.4688L58.3906 111H55.5625L48.8594 93.4844L49.25 103.5V111H45.3125V88.25H50.4375ZM80.4219 111.312C78.0156 111.312 76.0625 110.557 74.5625 109.047C73.0729 107.526 72.3281 105.505 72.3281 102.984V102.516C72.3281 100.828 72.651 99.3229 73.2969 98C73.9531 96.6667 74.8698 95.6302 76.0469 94.8906C77.224 94.151 78.5365 93.7812 79.9844 93.7812C82.2865 93.7812 84.0625 94.5156 85.3125 95.9844C86.5729 97.4531 87.2031 99.5312 87.2031 102.219V103.75H76.1562C76.2708 105.146 76.7344 106.25 77.5469 107.062C78.3698 107.875 79.401 108.281 80.6406 108.281C82.3802 108.281 83.7969 107.578 84.8906 106.172L86.9375 108.125C86.2604 109.135 85.3542 109.922 84.2188 110.484C83.0938 111.036 81.8281 111.312 80.4219 111.312ZM79.9688 96.8281C78.9271 96.8281 78.0833 97.1927 77.4375 97.9219C76.8021 98.651 76.3958 99.6667 76.2188 100.969H83.4531V100.688C83.3698 99.4167 83.0312 98.4583 82.4375 97.8125C81.8438 97.1562 81.0208 96.8281 79.9688 96.8281ZM100.266 111C100.099 110.677 99.9531 110.151 99.8281 109.422C98.6198 110.682 97.1406 111.312 95.3906 111.312C93.6927 111.312 92.3073 110.828 91.2344 109.859C90.1615 108.891 89.625 107.693 89.625 106.266C89.625 104.464 90.2917 103.083 91.625 102.125C92.9688 101.156 94.8854 100.672 97.375 100.672H99.7031V99.5625C99.7031 98.6875 99.4583 97.9896 98.9688 97.4688C98.4792 96.9375 97.7344 96.6719 96.7344 96.6719C95.8698 96.6719 95.1615 96.8906 94.6094 97.3281C94.0573 97.7552 93.7812 98.3021 93.7812 98.9688H89.9844C89.9844 98.0417 90.2917 97.1771 90.9062 96.375C91.5208 95.5625 92.3542 94.9271 93.4062 94.4688C94.4688 94.0104 95.651 93.7812 96.9531 93.7812C98.9323 93.7812 100.51 94.2812 101.688 95.2812C102.865 96.2708 103.469 97.6667 103.5 99.4688V107.094C103.5 108.615 103.714 109.828 104.141 110.734V111H100.266ZM96.0938 108.266C96.8438 108.266 97.5469 108.083 98.2031 107.719C98.8698 107.354 99.3698 106.865 99.7031 106.25V103.062H97.6562C96.25 103.062 95.1927 103.307 94.4844 103.797C93.776 104.286 93.4219 104.979 93.4219 105.875C93.4219 106.604 93.6615 107.188 94.1406 107.625C94.6302 108.052 95.2812 108.266 96.0938 108.266ZM116.953 106.406C116.953 105.729 116.672 105.214 116.109 104.859C115.557 104.505 114.635 104.193 113.344 103.922C112.052 103.651 110.974 103.307 110.109 102.891C108.214 101.974 107.266 100.646 107.266 98.9062C107.266 97.4479 107.88 96.2292 109.109 95.25C110.339 94.2708 111.901 93.7812 113.797 93.7812C115.818 93.7812 117.448 94.2812 118.688 95.2812C119.938 96.2812 120.562 97.5781 120.562 99.1719H116.766C116.766 98.4427 116.495 97.8385 115.953 97.3594C115.411 96.8698 114.693 96.625 113.797 96.625C112.964 96.625 112.281 96.8177 111.75 97.2031C111.229 97.5885 110.969 98.1042 110.969 98.75C110.969 99.3333 111.214 99.7865 111.703 100.109C112.193 100.432 113.182 100.76 114.672 101.094C116.161 101.417 117.328 101.807 118.172 102.266C119.026 102.714 119.656 103.255 120.062 103.891C120.479 104.526 120.688 105.297 120.688 106.203C120.688 107.724 120.057 108.958 118.797 109.906C117.536 110.844 115.885 111.312 113.844 111.312C112.458 111.312 111.224 111.062 110.141 110.562C109.057 110.062 108.214 109.375 107.609 108.5C107.005 107.625 106.703 106.682 106.703 105.672H110.391C110.443 106.568 110.781 107.26 111.406 107.75C112.031 108.229 112.859 108.469 113.891 108.469C114.891 108.469 115.651 108.281 116.172 107.906C116.693 107.521 116.953 107.021 116.953 106.406ZM134.25 109.344C133.135 110.656 131.552 111.312 129.5 111.312C127.667 111.312 126.276 110.776 125.328 109.703C124.391 108.63 123.922 107.078 123.922 105.047V94.0938H127.719V105C127.719 107.146 128.609 108.219 130.391 108.219C132.234 108.219 133.479 107.557 134.125 106.234V94.0938H137.922V111H134.344L134.25 109.344ZM150.641 97.5625C150.141 97.4792 149.625 97.4375 149.094 97.4375C147.354 97.4375 146.182 98.1042 145.578 99.4375V111H141.781V94.0938H145.406L145.5 95.9844C146.417 94.5156 147.688 93.7812 149.312 93.7812C149.854 93.7812 150.302 93.8542 150.656 94L150.641 97.5625ZM160.172 111.312C157.766 111.312 155.812 110.557 154.312 109.047C152.823 107.526 152.078 105.505 152.078 102.984V102.516C152.078 100.828 152.401 99.3229 153.047 98C153.703 96.6667 154.62 95.6302 155.797 94.8906C156.974 94.151 158.286 93.7812 159.734 93.7812C162.036 93.7812 163.812 94.5156 165.062 95.9844C166.323 97.4531 166.953 99.5312 166.953 102.219V103.75H155.906C156.021 105.146 156.484 106.25 157.297 107.062C158.12 107.875 159.151 108.281 160.391 108.281C162.13 108.281 163.547 107.578 164.641 106.172L166.688 108.125C166.01 109.135 165.104 109.922 163.969 110.484C162.844 111.036 161.578 111.312 160.172 111.312ZM159.719 96.8281C158.677 96.8281 157.833 97.1927 157.188 97.9219C156.552 98.651 156.146 99.6667 155.969 100.969H163.203V100.688C163.12 99.4167 162.781 98.4583 162.188 97.8125C161.594 97.1562 160.771 96.8281 159.719 96.8281ZM186.922 88.25V103.453C186.922 105.87 186.146 107.786 184.594 109.203C183.052 110.609 180.995 111.312 178.422 111.312C175.818 111.312 173.75 110.62 172.219 109.234C170.688 107.839 169.922 105.906 169.922 103.438V88.25H173.859V103.469C173.859 104.99 174.245 106.151 175.016 106.953C175.786 107.755 176.922 108.156 178.422 108.156C181.464 108.156 182.984 106.552 182.984 103.344V88.25H186.922ZM205.594 102.719C205.594 105.333 205 107.422 203.812 108.984C202.625 110.536 201.031 111.312 199.031 111.312C197.177 111.312 195.693 110.703 194.578 109.484V117.5H190.781V94.0938H194.281L194.438 95.8125C195.552 94.4583 197.068 93.7812 198.984 93.7812C201.047 93.7812 202.661 94.5521 203.828 96.0938C205.005 97.625 205.594 99.7552 205.594 102.484V102.719ZM201.812 102.391C201.812 100.703 201.474 99.3646 200.797 98.375C200.13 97.3854 199.172 96.8906 197.922 96.8906C196.37 96.8906 195.255 97.5312 194.578 98.8125V106.312C195.266 107.625 196.391 108.281 197.953 108.281C199.161 108.281 200.104 107.797 200.781 106.828C201.469 105.849 201.812 104.37 201.812 102.391Z" fill="white"/>
</svg>
