<svg width="250" height="200" viewBox="0 0 250 200" fill="none" xmlns="http://www.w3.org/2000/svg">
<rect width="250" height="200" fill="black"/>
<rect width="250" height="200" fill="black" fill-opacity="0"/>
<path d="M124.631 60.0059C118.063 60.2028 113 65.9328 113 72.5034V88.9984C113 89.8896 114.077 90.3353 114.707 89.7053L116.264 88.5471C116.681 88.2378 117.264 88.2978 117.609 88.6853L120.293 91.7071C120.684 92.0978 121.317 92.0978 121.708 91.7071L124.252 88.8415C124.651 88.3934 125.35 88.3934 125.748 88.8415L128.292 91.7071C128.683 92.0978 129.316 92.0978 129.707 91.7071L132.391 88.6853C132.736 88.2978 133.319 88.2371 133.736 88.5471L135.293 89.7053C135.923 90.3353 137 89.889 137 88.9984V72.0003C137 65.2503 131.427 59.8021 124.631 60.0059ZM121 74.0003C119.896 74.0003 119 73.1046 119 72.0003C119 70.8959 119.896 70.0003 121 70.0003C122.104 70.0003 123 70.8959 123 72.0003C123 73.1046 122.104 74.0003 121 74.0003ZM129 74.0003C127.896 74.0003 127 73.1046 127 72.0003C127 70.8959 127.896 70.0003 129 70.0003C130.104 70.0003 131 70.8959 131 72.0003C131 73.1046 130.104 74.0003 129 74.0003Z" fill="white"/>
<path d="M59.0488 121.49V131H54.6016V105.406H64.3926C67.252 105.406 69.5195 106.15 71.1953 107.639C72.8828 109.127 73.7266 111.096 73.7266 113.545C73.7266 116.053 72.9004 118.004 71.248 119.398C69.6074 120.793 67.3047 121.49 64.3398 121.49H59.0488ZM59.0488 117.922H64.3926C65.9746 117.922 67.1816 117.553 68.0137 116.814C68.8457 116.064 69.2617 114.986 69.2617 113.58C69.2617 112.197 68.8398 111.096 67.9961 110.275C67.1523 109.443 65.9922 109.016 64.5156 108.992H59.0488V117.922ZM81.4258 114.055C82.8203 112.438 84.584 111.629 86.7168 111.629C90.7715 111.629 92.8281 113.943 92.8867 118.572V131H88.6152V118.73C88.6152 117.418 88.3281 116.492 87.7539 115.953C87.1914 115.402 86.3594 115.127 85.2578 115.127C83.5469 115.127 82.2695 115.889 81.4258 117.412V131H77.1543V104H81.4258V114.055ZM108.584 131C108.396 130.637 108.232 130.045 108.092 129.225C106.732 130.643 105.068 131.352 103.1 131.352C101.189 131.352 99.6309 130.807 98.4238 129.717C97.2168 128.627 96.6133 127.279 96.6133 125.674C96.6133 123.646 97.3633 122.094 98.8633 121.016C100.375 119.926 102.531 119.381 105.332 119.381H107.951V118.133C107.951 117.148 107.676 116.363 107.125 115.777C106.574 115.18 105.736 114.881 104.611 114.881C103.639 114.881 102.842 115.127 102.221 115.619C101.6 116.1 101.289 116.715 101.289 117.465H97.0176C97.0176 116.422 97.3633 115.449 98.0547 114.547C98.7461 113.633 99.6836 112.918 100.867 112.402C102.062 111.887 103.393 111.629 104.857 111.629C107.084 111.629 108.859 112.191 110.184 113.316C111.508 114.43 112.188 116 112.223 118.027V126.605C112.223 128.316 112.463 129.682 112.943 130.701V131H108.584ZM103.891 127.924C104.734 127.924 105.525 127.719 106.264 127.309C107.014 126.898 107.576 126.348 107.951 125.656V122.07H105.648C104.066 122.07 102.877 122.346 102.08 122.896C101.283 123.447 100.885 124.227 100.885 125.234C100.885 126.055 101.154 126.711 101.693 127.203C102.244 127.684 102.977 127.924 103.891 127.924ZM120.66 111.98L120.783 114.178C122.189 112.479 124.035 111.629 126.32 111.629C130.281 111.629 132.297 113.896 132.367 118.432V131H128.096V118.678C128.096 117.471 127.832 116.58 127.305 116.006C126.789 115.42 125.939 115.127 124.756 115.127C123.033 115.127 121.75 115.906 120.906 117.465V131H116.635V111.98H120.66ZM142.088 107.357V111.98H145.445V115.145H142.088V125.762C142.088 126.488 142.229 127.016 142.51 127.344C142.803 127.66 143.318 127.818 144.057 127.818C144.549 127.818 145.047 127.76 145.551 127.643V130.947C144.578 131.217 143.641 131.352 142.738 131.352C139.457 131.352 137.816 129.541 137.816 125.92V115.145H134.688V111.98H137.816V107.357H142.088ZM147.396 121.314C147.396 119.451 147.766 117.775 148.504 116.287C149.242 114.787 150.279 113.639 151.615 112.842C152.951 112.033 154.486 111.629 156.221 111.629C158.787 111.629 160.867 112.455 162.461 114.107C164.066 115.76 164.934 117.951 165.062 120.682L165.08 121.684C165.08 123.559 164.717 125.234 163.99 126.711C163.275 128.188 162.244 129.33 160.896 130.139C159.561 130.947 158.014 131.352 156.256 131.352C153.572 131.352 151.422 130.461 149.805 128.68C148.199 126.887 147.396 124.502 147.396 121.525V121.314ZM151.668 121.684C151.668 123.641 152.072 125.176 152.881 126.289C153.689 127.391 154.814 127.941 156.256 127.941C157.697 127.941 158.816 127.379 159.613 126.254C160.422 125.129 160.826 123.482 160.826 121.314C160.826 119.393 160.41 117.869 159.578 116.744C158.758 115.619 157.639 115.057 156.221 115.057C154.826 115.057 153.719 115.613 152.898 116.727C152.078 117.828 151.668 119.48 151.668 121.684ZM172.709 111.98L172.832 113.967C174.168 112.408 175.996 111.629 178.316 111.629C180.859 111.629 182.6 112.602 183.537 114.547C184.92 112.602 186.865 111.629 189.373 111.629C191.471 111.629 193.029 112.209 194.049 113.369C195.08 114.529 195.607 116.24 195.631 118.502V131H191.359V118.625C191.359 117.418 191.096 116.533 190.568 115.971C190.041 115.408 189.168 115.127 187.949 115.127C186.977 115.127 186.18 115.391 185.559 115.918C184.949 116.434 184.521 117.113 184.275 117.957L184.293 131H180.021V118.484C179.963 116.246 178.82 115.127 176.594 115.127C174.883 115.127 173.67 115.824 172.955 117.219V131H168.684V111.98H172.709Z" fill="white"/>
</svg>
