<svg width="250" height="200" viewBox="0 0 250 200" fill="none" xmlns="http://www.w3.org/2000/svg">
<g clip-path="url(#clip0_22:6)">
<rect width="250" height="200" fill="white"/>
<rect width="250" height="200" fill="#EB773E"/>
<path d="M53.968 93.052C52.8827 92.3773 51.7093 91.7907 50.448 91.292C49.1867 90.7933 47.9693 90.5147 46.796 90.456C45.8867 90.4267 45.0947 90.5147 44.42 90.72C43.7747 90.896 43.2173 91.16 42.748 91.512C42.308 91.864 41.9707 92.2747 41.736 92.744C41.5013 93.2133 41.3547 93.712 41.296 94.24C41.2373 95.0907 41.472 95.8533 42 96.528C42.5573 97.2027 43.3053 97.8187 44.244 98.376C45.1827 98.904 46.1653 99.4027 47.192 99.872C48.424 100.4 49.5973 101.06 50.712 101.852C51.8267 102.615 52.7067 103.612 53.352 104.844C53.9973 106.047 54.2173 107.616 54.012 109.552C53.8947 110.696 53.5573 111.811 53 112.896C52.4427 113.981 51.68 114.949 50.712 115.8C49.744 116.621 48.556 117.267 47.148 117.736C45.7693 118.176 44.1707 118.352 42.352 118.264C41.032 118.205 39.7413 118.015 38.48 117.692C37.248 117.34 36.0747 116.885 34.96 116.328C33.8747 115.741 32.8627 115.037 31.924 114.216L34.652 110.388C35.3267 110.975 36.0893 111.517 36.94 112.016C37.82 112.515 38.7293 112.925 39.668 113.248C40.636 113.541 41.5747 113.717 42.484 113.776C43.54 113.776 44.508 113.615 45.388 113.292C46.2973 112.969 47.0453 112.471 47.632 111.796C48.248 111.121 48.6 110.285 48.688 109.288C48.776 108.437 48.5853 107.689 48.116 107.044C47.6467 106.399 47.0307 105.827 46.268 105.328C45.5053 104.8 44.6693 104.331 43.76 103.92C42.8213 103.48 41.868 102.996 40.9 102.468C39.932 101.94 39.0373 101.324 38.216 100.62C37.424 99.8867 36.808 99.0067 36.368 97.98C35.9573 96.9533 35.8253 95.7507 35.972 94.372C36.1773 92.5827 36.7493 91.0573 37.688 89.796C38.6267 88.5053 39.8587 87.5373 41.384 86.892C42.9387 86.2173 44.6693 85.8947 46.576 85.924C48.1013 85.9827 49.4507 86.188 50.624 86.54C51.8267 86.8627 52.8973 87.2587 53.836 87.728C54.7747 88.1973 55.6253 88.7253 56.388 89.312L53.968 93.052ZM63.3496 85.968H84.6016L84.0296 90.72H68.0576L67.0016 99.52H81.1696L80.5536 104.36H66.3856L65.3296 113.116H81.9176L81.3016 118H59.4336L63.3496 85.968ZM101.374 85.968C103.134 85.968 104.703 86.2027 106.082 86.672C107.49 87.112 108.663 87.772 109.602 88.652C110.54 89.532 111.215 90.6173 111.626 91.908C112.036 93.1693 112.139 94.6213 111.934 96.264C111.758 97.5253 111.406 98.7867 110.878 100.048C110.35 101.309 109.587 102.453 108.59 103.48C107.592 104.477 106.36 105.299 104.894 105.944C103.427 106.56 101.652 106.868 99.5695 106.868H94.9055L93.5415 118H88.4375L92.3535 85.968H101.374ZM100.098 101.94C101.623 101.94 102.84 101.647 103.75 101.06C104.688 100.444 105.378 99.7107 105.818 98.86C106.287 97.98 106.551 97.1733 106.61 96.44C106.698 95.912 106.683 95.34 106.566 94.724C106.478 94.0787 106.258 93.4773 105.906 92.92C105.554 92.3333 105.026 91.8493 104.322 91.468C103.647 91.0867 102.752 90.896 101.638 90.896H96.8415L95.5215 101.94H100.098ZM105.246 104.976L111.89 118H105.906L99.1295 105.108L105.246 104.976ZM128.11 119.232L117.902 85.968H124.018L131.058 110.96L128.154 110.388L140.562 85.968H146.59L128.286 119.232H128.11Z" fill="white"/>
<path d="M216.349 98.9504C216.304 98.0322 215.284 97.2785 214.365 97.22C211.393 97.0308 208.866 95.1185 207.932 92.3482C206.979 89.5117 207.912 86.3344 210.256 84.4441C210.994 83.8508 211.147 82.7885 210.61 82.0101C209.211 79.9815 207.593 78.1262 205.802 76.4937C205.101 75.8542 204.01 75.8675 203.324 76.5362C201.254 78.5541 197.731 79.1286 195.119 77.8382C192.402 76.4859 190.82 73.5439 191.186 70.5176C191.304 69.5666 190.659 68.6926 189.715 68.5212C187.31 68.0864 184.866 67.9227 182.419 68.0376C181.473 68.0816 180.724 68.8471 180.695 69.7916C180.609 72.8059 178.65 75.4723 175.813 76.4288C173.092 77.3431 169.694 76.3339 167.9 74.0888C167.307 73.3491 166.246 73.1954 165.465 73.7279C163.425 75.1294 161.546 76.7632 159.888 78.5815C159.242 79.2882 159.262 80.3733 159.925 81.058C162.052 83.2466 162.573 86.5443 161.223 89.2666C159.934 91.8618 157.056 93.4033 153.887 93.2015C152.86 93.1029 152.084 93.7473 151.911 94.6753C151.471 97.0931 151.31 99.5762 151.428 102.049C151.472 102.972 152.524 103.721 153.453 103.781C156.283 103.889 158.882 105.809 159.845 108.649C160.802 111.486 159.867 114.662 157.52 116.555C156.785 117.148 156.629 118.208 157.168 118.986C158.552 121.001 160.171 122.858 161.967 124.503C162.673 125.149 163.759 125.134 164.449 124.465C166.526 122.443 170.049 121.869 172.65 123.161C175.375 124.511 176.957 127.453 176.591 130.48C176.474 131.431 177.121 132.308 178.062 132.476C179.292 132.7 180.534 132.852 181.785 132.931C182.971 133.007 184.162 133.017 185.358 132.961C186.305 132.917 187.053 132.151 187.081 131.206C187.164 128.193 189.127 125.526 191.96 124.572C194.698 123.651 198.081 124.668 199.876 126.91C200.473 127.648 201.527 127.801 202.311 127.271C204.348 125.873 206.223 124.24 207.888 122.417C208.534 121.711 208.518 120.625 207.852 119.939C205.724 117.752 205.2 114.452 206.55 111.733C207.819 109.173 210.597 107.576 213.464 107.759L213.865 107.795C214.791 107.93 215.692 107.267 215.865 106.325C216.307 103.905 216.468 101.425 216.349 98.9504ZM182.698 119.198C172.371 118.541 164.532 109.636 165.19 99.3092C165.847 88.9822 174.752 81.1437 185.079 81.8012C195.406 82.4587 203.245 91.3631 202.587 101.69C202.364 105.195 201.189 108.412 199.332 111.109L191.666 102.4C192.347 101.04 192.757 99.5449 192.856 97.9812C193.051 94.9192 192.042 91.9647 190.014 89.662C187.987 87.3593 185.185 85.9837 182.123 85.7888C181.101 85.7238 180.076 85.7948 179.075 86.0001C178.636 86.0902 178.261 86.4229 178.119 86.8473C177.974 87.2814 178.077 87.7423 178.4 88.1097C178.4 88.1097 182.183 92.4404 183.45 93.8786C183.582 94.0293 183.56 94.3674 183.533 94.4878L183.514 94.576C183.283 96.0541 182.907 97.8221 182.646 98.4942C182.615 98.5213 182.586 98.5439 182.555 98.5718C182.522 98.6009 182.491 98.6291 182.459 98.6581C181.75 98.8369 179.921 98.9874 178.402 99.0265L178.403 99.0184L178.334 99.0312C178.321 99.0318 178.299 99.032 178.269 99.0301C178.106 99.0198 177.869 98.9587 177.664 98.7269C176.346 97.2295 172.708 93.1263 172.708 93.1263C172.382 92.7568 172.029 92.6611 171.791 92.646C171.235 92.6106 170.713 92.9801 170.52 93.5456C169.199 97.4339 170.061 101.762 172.771 104.841C174.799 107.144 177.602 108.519 180.664 108.714C182.227 108.814 183.763 108.597 185.198 108.093L192.947 116.897C189.923 118.571 186.404 119.434 182.698 119.198Z" fill="white"/>
</g>
<defs>
<clipPath id="clip0_22:6">
<rect width="250" height="200" fill="white"/>
</clipPath>
</defs>
</svg>
